<?xml version="1.0" standalone="no"?>
<!DOCTYPE svg PUBLIC "-//W3C//DTD SVG 20010904//EN"
 "http://www.w3.org/TR/2001/REC-SVG-20010904/DTD/svg10.dtd">
<svg version="1.0" xmlns="http://www.w3.org/2000/svg"
 width="512.000000pt" height="512.000000pt" viewBox="0 0 512.000000 512.000000"
 preserveAspectRatio="xMidYMid meet">

<g transform="translate(0.000000,512.000000) scale(0.100000,-0.100000)"
fill="#000000" stroke="none">
<path d="M1300 4784 c-195 -113 -365 -212 -378 -220 l-22 -15 2 -432 3 -432
374 -217 375 -216 41 21 c23 12 193 110 378 217 l337 195 0 435 0 436 -372
214 c-204 118 -374 216 -377 217 -3 2 -166 -90 -361 -203z"/>
<path d="M3083 4771 l-373 -216 0 -435 0 -435 371 -214 c204 -118 377 -214
383 -214 11 0 633 355 719 409 l37 24 0 430 0 430 -37 24 c-59 37 -701 406
-715 410 -7 2 -181 -94 -385 -213z"/>
<path d="M375 3207 l-370 -214 0 -438 0 -437 370 -214 c204 -118 374 -214 378
-214 5 0 177 97 383 216 l374 216 -2 435 -3 435 -370 214 c-203 117 -375 214
-380 214 -6 0 -177 -96 -380 -213z"/>
<path d="M2178 3207 l-367 -212 2 -439 2 -440 369 -213 c202 -117 373 -213
380 -212 6 0 175 96 376 212 l365 212 2 440 3 440 -366 210 c-200 116 -372
211 -382 212 -9 1 -182 -93 -384 -210z"/>
<path d="M3983 3204 l-373 -216 0 -433 0 -432 375 -217 c205 -119 378 -216
382 -216 5 0 175 96 378 214 l370 213 0 439 0 438 -369 213 c-203 117 -374
213 -380 213 -6 0 -179 -98 -383 -216z"/>
<path d="M1278 1642 l-378 -217 3 -435 2 -435 375 -217 375 -216 45 24 c25 14
195 112 377 217 l333 192 0 436 0 436 -371 214 c-204 118 -374 215 -378 216
-3 2 -176 -95 -383 -215z"/>
<path d="M3083 1642 l-373 -216 0 -436 0 -435 347 -200 c190 -110 360 -208
378 -217 l31 -16 374 216 375 217 3 435 2 435 -367 212 c-203 116 -375 214
-383 217 -8 2 -183 -93 -387 -212z"/>
</g>
</svg>
